<?xml version="1.0" encoding="UTF-8"?>
<!-- Generator: Adobe Illustrator 25.2.1, SVG Export Plug-In . SVG Version: 6.00 Build 0)  -->
<svg xmlns="http://www.w3.org/2000/svg" xmlns:xlink="http://www.w3.org/1999/xlink" version="1.1" id="Capa_1" x="0px" y="0px" viewBox="0 0 512 512" style="enable-background:new 0 0 512 512;" xml:space="preserve" width="512" height="512">
<g>
	<g>
		<g>
			<path style="fill:#EF9A36;" d="M142.382,242.082c0,0,95.189-148.208,109.799-140.341     c14.611,7.867,129.188,121.44,128.655,132.649C380.304,245.598,137.104,255.424,142.382,242.082z"/>
		</g>
		<g>
			<path style="fill:#EF9A36;" d="M142.382,242.082c0,0,230.763-28.204,238.455-7.692c7.692,20.512-97.433,97.433-115.381,99.997     C247.507,336.951,142.382,249.774,142.382,242.082z"/>
		</g>
		<g>
			<g>
				<path style="fill:#FFFFFF;" d="M157.775,166.926c0,0,8.723,197.061,17.228,202.731c8.505,5.67,192.787,11.34,192.787,0      c0-11.341-4.779-206.052-18.955-211.722L157.775,166.926z"/>
			</g>
			<g>
				<path style="fill:#241726;" d="M296.224,377.346c-0.002,0-0.004,0-0.007,0c-50.299,0-116.405-3.109-121.847-6.739      c-1.581-1.055-5.786-3.857-12.309-104.368c-3.208-49.414-5.405-98.769-5.425-99.262c-0.029-0.629,0.457-1.162,1.086-1.191      l191.06-8.992c0.161-0.018,0.328,0.018,0.477,0.08c15.724,6.288,19.672,210.732,19.672,212.782c0,2.304-2.706,4.649-22.342,6.21      C334.406,376.836,316.989,377.346,296.224,377.346z M158.967,168.013c6.342,142.706,13.44,198.216,16.674,200.696      c4.158,2.773,63.38,6.353,120.576,6.353c66.694,0,70.248-4.874,70.433-5.429c-0.002-23.422-5.786-203.753-18.042-210.545      L158.967,168.013z"/>
			</g>
		</g>
		<g>
			<g>
				
					<ellipse transform="matrix(0.0239 -0.9997 0.9997 0.0239 -332.5061 477.7495)" style="fill:#F5D450;" cx="78.397" cy="409.147" rx="38.296" ry="38.296"/>
			</g>
			<g>
				<g>
					<path style="fill:#241726;" d="M55.932,430.565c-11.809-12.387-11.339-32.073,1.049-43.883       c12.387-11.809,32.072-11.339,43.882,1.049c11.809,12.387,11.339,32.073-1.048,43.882       C87.427,443.422,67.741,442.952,55.932,430.565z M99.796,388.747c-11.249-11.8-29.999-12.248-41.799-0.999       c-11.8,11.249-12.248,30.001-0.999,41.8c11.249,11.8,30.001,12.247,41.8,0.998C110.598,419.297,111.046,400.547,99.796,388.747       z"/>
				</g>
				<g>
					<path style="fill:#241726;" d="M68.823,418.246c-2.005-2.103-3.371-5.212-2.379-8.932l1.423,0.38       c-1.073,4.019,1.146,7.216,3.585,8.859c2.372,1.605,5.077,1.943,6.578,0.82c3.333-2.492,1.872-6.616-0.738-12.621       c-1.401-3.225-0.65-6.969,1.827-9.107c2.178-1.878,5.108-1.983,7.839-0.28c6.383,3.984,3.931,11.607,3.906,11.683l-1.397-0.465       c0.088-0.267,2.103-6.601-3.288-9.968c-2.186-1.364-4.409-1.31-6.097,0.146c-1.995,1.721-2.586,4.765-1.438,7.403       c2.353,5.414,4.785,11.012,0.269,14.389c-2.027,1.515-5.356,1.202-8.286-0.779C70,419.35,69.387,418.838,68.823,418.246z"/>
				</g>
				<g>
					
						<rect x="61.658" y="408.157" transform="matrix(0.7238 -0.69 0.69 0.7238 -260.2956 167.4979)" style="fill:#241726;" width="34.844" height="1.473"/>
				</g>
			</g>
		</g>
		<g>
			<g>
				<path style="fill:#241726;" d="M445.131,143.788c-0.087,0-0.228-0.016-0.312-0.036c-0.897-0.208-3.281-0.756-2.188-21.066      c0.022-0.419,0.274-0.792,0.654-0.97c10.158-4.776,25.195-12.032,32.416-15.9c-8.327,1.927-25.78,6.701-37.93,10.154      c-0.303,0.087-0.638,0.042-0.908-0.125c-1.689-1.031-10.134-6.362-10.551-10.054c-0.047-0.424,0.094-0.845,0.397-1.187      c2.514-2.813,29.088-2.956,34.39-2.956c11.501,0,18.211,0.402,19.973,1.193c0.013,0.004,0.024,0.009,0.036,0.015      c0.062,0.027,0.123,0.06,0.181,0.101c0.036,0.022,0.067,0.045,0.094,0.067h0.002c0.06,0.051,0.114,0.107,0.163,0.165      c0.004,0.007,0.009,0.011,0.011,0.016c0.007,0.007,0.013,0.016,0.02,0.022c0.069,0.08,0.129,0.172,0.176,0.272      c0.321,0.689,0.002,1.419-0.654,2.447C478.054,110.723,448.932,143.788,445.131,143.788z M444.877,123.491      c-0.366,7.366-0.254,15.644,0.529,17.785c4.12-2.726,24.444-24.535,31.671-33.652      C472.408,110.23,463.166,114.885,444.877,123.491z M428.707,105.983c0.837,1.965,5.434,5.467,8.923,7.651      c4.334-1.229,24.149-6.819,35.356-9.485c-2.938-0.127-6.862-0.216-11.887-0.216      C443.659,103.933,431.183,104.966,428.707,105.983z"/>
			</g>
			<g>
				<path style="fill:#241726;" d="M436.093,134.198c-0.145,0-0.283-0.011-0.41-0.036c-0.649-0.118-1.013-0.475-1.202-0.752      c-1.091-1.597,0.402-10.859,1.843-18.347c0.12-0.622,0.725-1.017,1.338-0.906c0.62,0.121,1.024,0.718,0.906,1.339      c-1.28,6.643-2.422,14.448-2.206,16.411c1.084-0.165,3.975-1.7,6.596-3.536c0.517-0.361,1.229-0.239,1.59,0.279      c0.364,0.518,0.237,1.229-0.279,1.59C442.51,131.473,438.361,134.198,436.093,134.198z"/>
			</g>
		</g>
		<g>
			<g>
				<path style="fill:#241726;" d="M424.337,482.5c-5.351,0-45.026-1.381-46.556-4.493c-0.366-0.75-1.483-3.027,14.959-14.994      c0.339-0.25,0.785-0.288,1.167-0.105c10.06,4.836,25.068,11.869,32.668,15.055c-6.886-5.371-21.686-15.956-31.691-22.962      c-0.261-0.183-0.433-0.466-0.475-0.781c-0.268-1.961-1.461-11.876,1.135-14.526c0.281-0.288,0.667-0.444,1.091-0.444      c0.881,0,2.311,0.618,6.77,5.108c8.778,8.842,27.542,31.457,28.961,35.862c0.016,0.04,0.031,0.08,0.042,0.123      c0.02,0.074,0.033,0.149,0.038,0.228c0.004,0.033,0.007,0.065,0.004,0.094l0,0c0,0.08-0.009,0.156-0.025,0.23      c0,0.007-0.002,0.013-0.004,0.02c0,0.009-0.002,0.018-0.005,0.027c-0.018,0.105-0.051,0.21-0.098,0.31h-0.002v0.002      C431.939,482.024,431.352,482.5,424.337,482.5z M380.074,476.898c4.33,1.35,30.045,3.317,44.263,3.317      c0.638,0,1.214-0.007,1.731-0.013c-8.689-3.553-25.666-11.642-32.534-14.941C387.589,469.629,381.241,474.94,380.074,476.898z       M396.608,453.418c10.694,7.493,22.699,16.047,29.739,21.517c-7.881-10.553-25.45-31.305-29.431-33.275      C395.912,443.537,396.099,449.327,396.608,453.418z"/>
			</g>
			<g>
				<path style="fill:#241726;" d="M388.225,469.093c-0.103,0-0.207-0.013-0.312-0.042c-2.195-0.625-7.412-2.28-8.461-4.185      c-0.317-0.578-0.27-1.084-0.174-1.408c0.551-1.854,8.677-6.543,15.396-10.15c0.555-0.292,1.249-0.089,1.546,0.466      c0.299,0.555,0.089,1.247-0.466,1.546c-5.96,3.201-12.737,7.241-14.125,8.648c0.814,0.736,3.83,2.01,6.909,2.882      c0.607,0.174,0.959,0.805,0.787,1.412C389.182,468.765,388.722,469.093,388.225,469.093z"/>
			</g>
		</g>
		<g>
			<g>
				<path style="fill:#241726;" d="M68.211,192.668c-4.062,0.002-17.033-2.539-28.086-5.057      c-17.504-3.986-21.764-5.722-22.864-6.679c-0.062-0.049-0.118-0.105-0.167-0.167c-0.185-0.214-0.216-0.388-0.243-0.542l0,0l0,0      c0-0.002,0-0.004-0.002-0.004c-0.013-0.089-0.018-0.176-0.013-0.263c0.002-0.114,0.018-0.227,0.049-0.337      c0.009-0.038,0.024-0.078,0.042-0.118c0.022-0.06,0.051-0.118,0.085-0.172c2.683-4.776,40.413-29.755,45.128-29.755      c0.919,0,1.327,0.502,1.49,0.801c1.769,3.263-2.106,12.467-2.9,14.281c-0.127,0.29-0.372,0.515-0.674,0.62      c-11.539,3.984-28.668,10.085-36.768,13.359c10.973-1.287,35.244-5.438,35.532-5.49c0.41-0.069,0.836,0.092,1.095,0.424      c12.516,16.027,10.817,17.91,10.259,18.528C69.746,192.572,69.079,192.668,68.211,192.668z M23.196,180.942      c10.897,3.239,38.499,9.445,45.015,9.442c0.02,0,0.04,0,0.06,0c-0.604-2.224-5.237-9.054-9.739-14.872      C54.367,176.222,33.221,179.795,23.196,180.942z M61.773,151.901c-4.602,0.89-27.105,15.958-37.508,23.915      c8.265-3.326,22.2-8.262,34.569-12.534C60.446,159.494,62.215,153.989,61.773,151.901z"/>
			</g>
			<g>
				<path style="fill:#241726;" d="M62.978,180.701c-0.651,0.013-1.225-0.484-1.225-1.144c0.002-0.629,0.513-1.14,1.142-1.14h0.002      c0.02,0,0.04,0,0.058,0c3.219,0,6.471-0.401,7.41-0.89c-0.805-1.532-6.304-7.39-11.233-12.182      c-0.453-0.439-0.462-1.162-0.022-1.615c0.439-0.453,1.162-0.462,1.615-0.022c5.467,5.316,11.992,12.059,12.01,13.993      c0.002,0.337-0.091,0.836-0.555,1.305C70.667,180.529,65.307,180.701,62.978,180.701z"/>
			</g>
		</g>
		<g>
			<path style="fill:#241726;" d="M464.203,436.586c-0.85,0-1.653,0-3.901-8.956c-7.593-1.461-8.258-2.351-8.479-2.65     c-0.214-0.285-0.306-0.81-0.207-1.151c0.136-0.484,0.453-1.608,9.126-5.104c3.114-8.117,4.165-8.117,4.865-8.117     c0.361,0,0.859,0.261,1.075,0.549c0.555,0.747,1.06,2.69,1.825,5.802c0.241,0.977,0.531,2.157,0.698,2.672     c0.453,0.203,1.461,0.564,2.295,0.863c4.459,1.597,5.608,2.141,5.815,3.199c0.078,0.395-0.125,0.975-0.424,1.242     c-0.906,0.812-5.22,2.413-7.479,3.219c-3.672,8.352-4.45,8.394-5.142,8.43C464.25,436.586,464.226,436.586,464.203,436.586z      M454.719,423.996c1.515,0.439,4.296,1.073,6.726,1.526c0.439,0.083,0.792,0.413,0.899,0.848c0.62,2.514,1.432,5.38,2.014,7     c0.841-1.51,2.121-4.203,3.161-6.585c0.127-0.29,0.368-0.515,0.667-0.62c2.074-0.729,4.419-1.628,5.869-2.264     c-1.019-0.431-2.42-0.932-3.324-1.256c-2.541-0.912-3.02-1.109-3.346-1.544c-0.285-0.384-0.462-1.024-1.095-3.598     c-0.241-0.977-0.611-2.48-0.937-3.596c-0.758,1.439-1.825,3.91-2.652,6.096c-0.114,0.301-0.348,0.538-0.645,0.658     C459.363,421.734,456.305,423.106,454.719,423.996z"/>
		</g>
		<g>
			<path style="fill:#241726;" d="M100.564,264.935c-0.848,0-1.651,0-3.899-8.956c-7.593-1.461-8.258-2.351-8.479-2.65     c-0.214-0.286-0.305-0.81-0.207-1.151c0.136-0.484,0.453-1.608,9.126-5.104c3.114-8.117,4.165-8.117,4.865-8.117     c0.361,0,0.859,0.261,1.075,0.549c0.555,0.747,1.06,2.69,1.825,5.802c0.241,0.977,0.531,2.157,0.698,2.672     c0.453,0.203,1.461,0.564,2.295,0.863c4.459,1.597,5.608,2.141,5.815,3.199c0.078,0.395-0.125,0.975-0.424,1.243     c-0.906,0.812-5.22,2.414-7.479,3.219c-3.672,8.356-4.455,8.396-5.146,8.43C100.609,264.935,100.584,264.935,100.564,264.935z      M91.082,252.345c1.515,0.439,4.296,1.073,6.725,1.526c0.439,0.082,0.792,0.413,0.899,0.848c0.62,2.514,1.432,5.38,2.012,7.002     c0.841-1.51,2.124-4.205,3.163-6.587c0.127-0.29,0.368-0.515,0.667-0.62c2.075-0.729,4.419-1.628,5.869-2.264     c-1.019-0.43-2.42-0.932-3.324-1.256c-2.541-0.912-3.02-1.109-3.346-1.544c-0.286-0.384-0.462-1.024-1.095-3.598     c-0.241-0.977-0.611-2.48-0.937-3.596c-0.758,1.439-1.825,3.91-2.652,6.096c-0.114,0.301-0.348,0.538-0.645,0.658     C95.726,250.083,92.668,251.455,91.082,252.345z"/>
		</g>
		<g>
			<path style="fill:#241726;" d="M433.63,68.804c-0.848,0-1.651,0-3.901-8.956c-7.591-1.461-8.256-2.351-8.477-2.65     c-0.214-0.285-0.306-0.81-0.207-1.151c0.136-0.484,0.453-1.608,9.125-5.104c3.114-8.117,4.165-8.117,4.865-8.117     c0.361,0,0.859,0.261,1.075,0.549c0.555,0.747,1.06,2.69,1.825,5.802c0.241,0.977,0.531,2.157,0.698,2.672     c0.453,0.203,1.461,0.564,2.295,0.863c4.459,1.597,5.608,2.141,5.815,3.199c0.078,0.395-0.125,0.975-0.424,1.243     c-0.906,0.812-5.22,2.413-7.479,3.219c-3.672,8.352-4.452,8.394-5.144,8.43C433.677,68.804,433.652,68.804,433.63,68.804z      M424.147,56.215c1.512,0.439,4.296,1.073,6.723,1.526c0.439,0.083,0.792,0.413,0.899,0.848c0.62,2.514,1.432,5.38,2.014,7.002     c0.841-1.51,2.124-4.205,3.163-6.587c0.127-0.29,0.368-0.515,0.667-0.62c2.074-0.729,4.419-1.628,5.869-2.264     c-1.019-0.43-2.42-0.932-3.324-1.256c-2.541-0.912-3.02-1.109-3.346-1.544c-0.286-0.384-0.462-1.024-1.095-3.598     c-0.241-0.977-0.609-2.48-0.937-3.596c-0.758,1.439-1.825,3.91-2.652,6.096c-0.114,0.301-0.348,0.538-0.645,0.658     C428.792,53.953,425.734,55.325,424.147,56.215z"/>
		</g>
		<g>
			<path style="fill:#241726;" d="M460.779,381.745c-0.002,0-0.031,0-0.033,0c-4.464-0.02-8.077-3.667-8.059-8.129     c0.018-4.443,3.647-8.059,8.09-8.059c4.499,0.018,8.115,3.663,8.097,8.126C468.857,378.129,465.225,381.745,460.779,381.745z      M460.806,367.842c-3.217,0-5.822,2.594-5.835,5.784c-0.013,3.203,2.583,5.82,5.784,5.835l0.024,1.142v-1.142     c3.192,0,5.798-2.596,5.811-5.786C466.604,370.472,464.009,367.855,460.806,367.842z"/>
		</g>
		<g>
			<path style="fill:#241726;" d="M154.388,479.087c-0.002,0-0.031,0-0.033,0c-4.464-0.02-8.077-3.667-8.059-8.129     c0.02-4.444,3.649-8.059,8.09-8.059c4.499,0.018,8.115,3.665,8.097,8.129C162.465,475.471,158.833,479.087,154.388,479.087z      M154.415,465.183c-3.217,0-5.82,2.594-5.835,5.784c-0.013,3.203,2.583,5.82,5.784,5.835l0.025,1.142v-1.142     c3.192,0,5.797-2.594,5.811-5.784C160.212,467.813,157.618,465.196,154.415,465.183z"/>
		</g>
		<g>
			<path style="fill:#241726;" d="M299.913,16.188c-0.002,0-0.031,0-0.034,0c-4.464-0.02-8.077-3.667-8.059-8.128     C291.841,3.616,295.47,0,299.911,0c2.199,0.009,4.229,0.859,5.75,2.393c1.524,1.537,2.356,3.573,2.347,5.735     C307.991,12.572,304.359,16.188,299.913,16.188z M299.94,2.284c-3.217,0-5.82,2.594-5.835,5.784     c-0.013,3.203,2.583,5.82,5.784,5.835l0.025,1.142v-1.142c3.192,0,5.797-2.594,5.811-5.784c0.007-1.553-0.591-3.016-1.684-4.118     C302.947,2.9,301.493,2.291,299.94,2.284z"/>
		</g>
		<g>
			<g>
				<path style="fill:#FFFFFF;" d="M230.31,36.109c0,0-2.205-16.74,13.908-11.323c16.113,5.416,10.863,20.743,4.72,15.498      c-6.143-5.245,5.383-23.033,17.713-15.112c12.33,7.921,9.572,23.291,0.826,24.425c-8.746,1.134,5.294-17.896,16.312-6.143      c11.017,11.753-13.038,33.18-22.875,25.302c-9.838-7.878-2.139-20.593,0.221-12.844c2.36,7.749-4.004,15.348-21.452,15.048      c-17.448-0.3-9.506-27.144-3.407-19.33c6.099,7.814-4.026,16.633-16.334,7.428C207.634,49.851,221.675,30.821,230.31,36.109z"/>
			</g>
			<g>
				<path style="fill:#241726;" d="M240.672,72.11l-1.008-0.009c-5.726-0.098-9.757-3.029-11.182-8.08      c-3.007-0.384-6.179-1.773-9.224-4.051c-4.832-3.614-6.469-9.099-4.49-15.048c2.028-6.094,7.428-10.868,12.295-10.868      c0.692,0,1.361,0.091,2.003,0.272c-0.018-2.338,0.35-6.286,2.706-8.974c2.648-3.02,7.004-3.607,12.811-1.651      c2.231,0.75,4.185,1.722,5.829,2.898c4.655-4.899,11.28-5.972,16.859-2.391c5.327,3.424,8.566,8.686,8.838,14.258      c3.125,0.096,5.989,1.508,8.517,4.205c3.435,3.667,4.069,8.593,1.784,13.868c-3.475,8.019-12.962,15.055-20.306,15.055      c-2.302,0-4.287-0.656-5.902-1.947c-0.765-0.613-1.457-1.274-2.066-1.976C254.276,70.578,248.276,72.11,240.672,72.11z       M230.906,64.109c0.999,2.802,3.359,5.615,8.798,5.708l0.968,0.009c8.749,0,13.536-2.046,16.107-3.995      c-2.449-3.977-2.257-8.323-0.89-11.015c0.794-1.564,1.95-2.46,3.167-2.46c0.819,0,2.318,0.419,3.172,3.223      c1.182,3.881,0.31,7.678-2.391,10.569c0.524,0.607,1.124,1.182,1.791,1.715c1.2,0.961,2.706,1.448,4.475,1.448      c6.429,0,15.108-6.52,18.209-13.678c1.345-3.105,2.202-7.602-1.356-11.399c-2.09-2.228-4.41-3.399-6.904-3.482      c-0.535,5.351-3.89,9.389-8.427,9.978c-2.969,0.39-3.966-1.171-4.024-2.617c-0.127-3.156,4.414-8.461,10.228-9.478      c-0.219-4.856-3.076-9.473-7.794-12.503c-4.633-2.978-9.942-2.103-13.859,1.927c3.801,3.627,4.506,8.086,3.442,11.064      c-1.191,3.335-4.66,4.383-7.419,2.028c-3.397-2.898-2.311-8.552,0.747-12.788c-1.43-1.001-3.136-1.838-5.09-2.496      c-4.852-1.628-8.334-1.316-10.361,0.988c-2.782,3.165-2.059,9.048-2.05,9.108c0.056,0.435-0.143,0.865-0.513,1.104      c-0.366,0.241-0.841,0.245-1.216,0.018c-0.807-0.495-1.7-0.745-2.652-0.745c-3.877,0-8.421,4.174-10.127,9.304      c-0.781,2.344-1.981,8.256,3.692,12.498c2.472,1.849,5.001,3.04,7.399,3.495c-0.426-3.917,0.573-8.222,2.585-10.718      c0.979-1.216,2.124-1.858,3.31-1.858c0.821,0,2.052,0.323,3.257,1.865c2.173,2.784,2.666,5.925,1.352,8.615      C237.239,62.188,234.357,63.897,230.906,64.109z M259.057,54.64c-0.198,0-0.682,0.33-1.131,1.211      c-0.993,1.956-1.16,5.271,0.564,8.378c1.898-2.244,2.451-5.035,1.553-7.986C259.646,54.934,259.186,54.64,259.057,54.64z       M233.922,51.345c-0.464,0-1.008,0.357-1.532,1.008c-1.483,1.84-2.572,5.773-2.037,9.491c2.813-0.051,5.148-1.307,6.125-3.306      c0.915-1.876,0.513-4.138-1.102-6.208C235.026,51.881,234.488,51.345,233.922,51.345z M273.726,40.981      c-4.655,1.051-7.912,5.322-7.843,7.04c0.007,0.203,0.02,0.482,0.888,0.482c0.172,0,0.359-0.013,0.56-0.04      C270.663,48.03,273.166,45.033,273.726,40.981z M250.71,29.817c-2.621,3.665-3.121,7.812-1.031,9.599      c1.568,1.336,3.103,0.857,3.788-1.062C254.265,36.117,253.674,32.715,250.71,29.817z"/>
			</g>
		</g>
		<g>
			<g>
				<path style="fill:#FFFFFF;" d="M60.281,293.133c0,0-2.205-16.74,13.908-11.324c16.113,5.416,10.863,20.743,4.72,15.498      c-6.143-5.245,5.383-23.033,17.713-15.112c12.33,7.921,9.572,23.291,0.826,24.425c-8.746,1.134,5.295-17.896,16.312-6.143      c11.018,11.753-13.038,33.18-22.875,25.302c-9.838-7.878-2.139-20.593,0.221-12.844c2.36,7.749-4.004,15.348-21.452,15.048      c-17.448-0.3-9.506-27.144-3.407-19.33c6.099,7.814-4.026,16.633-16.334,7.428C37.605,306.876,51.646,287.846,60.281,293.133z"/>
			</g>
			<g>
				<path style="fill:#241726;" d="M70.642,329.135l-1.008-0.009c-5.726-0.098-9.757-3.029-11.182-8.079      c-3.009-0.386-6.179-1.776-9.224-4.051c-4.832-3.614-6.469-9.099-4.49-15.05c2.028-6.094,7.428-10.868,12.295-10.868      c0.691,0,1.361,0.091,2.003,0.272c-0.018-2.338,0.35-6.286,2.706-8.972c2.648-3.02,7.004-3.605,12.811-1.651      c2.231,0.749,4.185,1.722,5.829,2.898c4.653-4.901,11.281-5.971,16.859-2.391c5.327,3.424,8.566,8.686,8.838,14.258      c3.125,0.096,5.989,1.508,8.517,4.205c3.435,3.665,4.069,8.59,1.785,13.866c-3.473,8.021-12.962,15.057-20.306,15.057      c0,0,0,0-0.002,0c-2.3,0-4.285-0.656-5.9-1.947c-0.765-0.613-1.457-1.274-2.066-1.976      C84.247,327.603,78.247,329.135,70.642,329.135z M60.877,321.134c0.999,2.802,3.359,5.615,8.798,5.708l0.968,0.009      c8.749,0,13.535-2.045,16.107-3.995c-2.449-3.977-2.257-8.323-0.89-11.015c0.794-1.564,1.95-2.46,3.168-2.46      c0.819,0,2.318,0.419,3.172,3.223c1.182,3.881,0.31,7.678-2.391,10.569c0.524,0.607,1.124,1.182,1.791,1.715      c1.2,0.962,2.706,1.448,4.475,1.448c6.429,0,15.108-6.52,18.209-13.681c1.345-3.105,2.202-7.602-1.356-11.396      c-2.09-2.228-4.41-3.399-6.904-3.482c-0.535,5.351-3.89,9.389-8.427,9.978c-2.965,0.395-3.966-1.173-4.024-2.617      c-0.127-3.156,4.414-8.461,10.228-9.478c-0.219-4.856-3.076-9.474-7.794-12.503c-4.633-2.98-9.944-2.104-13.859,1.927      c3.801,3.627,4.506,8.086,3.442,11.064c-1.193,3.335-4.662,4.383-7.419,2.028c-3.397-2.897-2.311-8.552,0.747-12.788      c-1.43-1.002-3.136-1.838-5.09-2.496c-4.856-1.631-8.34-1.318-10.366,0.993c-2.788,3.181-2.055,9.041-2.046,9.099      c0.056,0.437-0.143,0.868-0.511,1.107c-0.37,0.241-0.843,0.245-1.218,0.018c-0.808-0.495-1.698-0.745-2.652-0.745      c-3.877,0-8.421,4.174-10.127,9.306c-0.781,2.344-1.981,8.256,3.692,12.498c2.469,1.847,4.999,3.038,7.399,3.495      c-0.426-3.917,0.573-8.222,2.585-10.718c0.979-1.216,2.124-1.858,3.31-1.858c0.821,0,2.052,0.323,3.257,1.865      c2.173,2.784,2.666,5.925,1.352,8.615C67.209,319.211,64.327,320.922,60.877,321.134z M89.027,311.665      c-0.199,0-0.683,0.33-1.131,1.211c-0.993,1.956-1.16,5.271,0.564,8.378c1.898-2.244,2.451-5.035,1.553-7.986      C89.616,311.959,89.157,311.665,89.027,311.665z M63.892,308.37c-0.464,0-1.008,0.357-1.533,1.008      c-1.483,1.84-2.572,5.773-2.036,9.491c2.813-0.051,5.15-1.309,6.125-3.306c0.915-1.876,0.513-4.138-1.102-6.208      C64.997,308.905,64.459,308.37,63.892,308.37z M103.696,298.007c-4.655,1.051-7.912,5.322-7.843,7.04      c0.007,0.203,0.02,0.482,0.888,0.482c0.172,0,0.359-0.013,0.56-0.04C100.633,305.055,103.136,302.057,103.696,298.007z       M80.68,286.842c-2.621,3.665-3.121,7.812-1.031,9.599c1.57,1.336,3.101,0.859,3.788-1.062      C84.236,293.141,83.645,289.74,80.68,286.842z"/>
			</g>
		</g>
		<g>
			<g>
				<path style="fill:#FFFFFF;" d="M264.271,442.307c0,0-3.797-15.8,12.316-10.383c16.113,5.416,12.455,19.803,6.312,14.558      c-6.143-5.245,5.383-23.033,17.713-15.113c12.33,7.921,9.572,23.291,0.826,24.425c-8.746,1.134,5.295-17.896,16.312-6.143      c11.018,11.753-13.037,33.18-22.875,25.302c-9.837-7.878-2.139-20.593,0.221-12.844c2.36,7.749-4.004,15.348-21.452,15.048      c-17.448-0.3-9.506-27.144-3.407-19.33c6.099,7.814-4.026,16.633-16.334,7.427C241.594,456.049,255.635,437.019,264.271,442.307      z"/>
			</g>
			<g>
				<path style="fill:#241726;" d="M274.638,478.308l-1.015-0.009c-5.724-0.098-9.755-3.029-11.18-8.079      c-3.009-0.384-6.181-1.773-9.226-4.051c-4.832-3.614-6.467-9.101-4.488-15.05c2.028-6.092,7.426-10.865,12.293-10.865      c0.62,0,1.225,0.074,1.807,0.219c-0.219-2.226-0.174-5.746,1.747-8.182c2.295-2.909,6.482-3.426,12.376-1.448      c2.438,0.819,4.573,1.88,6.368,3.165c2.86-3.64,6.859-5.782,10.897-5.782c2.398,0,4.758,0.734,7.013,2.182      c5.329,3.424,8.566,8.686,8.838,14.261c3.125,0.094,5.989,1.506,8.517,4.202c3.437,3.667,4.071,8.592,1.782,13.87      c-3.473,8.019-12.96,15.055-20.301,15.055c-2.302,0-4.29-0.656-5.905-1.95c-0.765-0.613-1.457-1.274-2.066-1.976      C288.238,476.778,282.24,478.308,274.638,478.308z M264.865,470.307c0.999,2.802,3.362,5.615,8.798,5.708l0.975,0.009      c8.744,0,13.529-2.046,16.101-3.995c-2.449-3.977-2.257-8.323-0.888-11.015c0.792-1.564,1.947-2.46,3.165-2.46      c0.819,0,2.318,0.419,3.172,3.223c1.182,3.884,0.31,7.678-2.391,10.569c0.526,0.609,1.124,1.182,1.791,1.715      c1.2,0.961,2.706,1.45,4.477,1.45c6.426,0,15.104-6.52,18.207-13.678c1.345-3.105,2.202-7.604-1.356-11.401      c-2.088-2.229-4.41-3.4-6.904-3.482c-0.533,5.354-3.89,9.389-8.427,9.978c-0.308,0.04-0.593,0.058-0.857,0.058l0,0      c-2.257,0-3.116-1.381-3.167-2.672c-0.129-3.156,4.414-8.463,10.23-9.48c-0.219-4.856-3.078-9.474-7.796-12.503      c-1.88-1.209-3.823-1.82-5.777-1.82c-3.346,0-6.696,1.829-9.126,4.941c3.913,3.64,4.751,7.975,3.81,10.609      c-1.019,2.857-4.075,3.573-6.743,1.289c-2.781-2.373-2.795-6.982-0.132-11.457c-1.615-1.164-3.562-2.133-5.802-2.886      c-4.849-1.626-8.189-1.412-9.853,0.694c-2.26,2.86-1.004,8.289-0.991,8.343c0.107,0.448-0.067,0.919-0.442,1.189      c-0.375,0.277-0.875,0.29-1.265,0.051c-0.807-0.495-1.7-0.745-2.652-0.745c-3.877,0-8.418,4.173-10.125,9.302      c-0.781,2.347-1.983,8.258,3.689,12.501c2.472,1.849,5.001,3.04,7.399,3.495c-0.426-3.917,0.576-8.222,2.585-10.718      c0.979-1.216,2.124-1.858,3.31-1.858c0.821,0,2.052,0.323,3.257,1.865c2.173,2.784,2.666,5.925,1.352,8.615      C271.198,468.386,268.316,470.095,264.865,470.307z M293.016,460.838c-0.199,0-0.683,0.33-1.129,1.211      c-0.995,1.956-1.162,5.273,0.562,8.378c1.898-2.244,2.452-5.035,1.552-7.986C293.605,461.132,293.146,460.838,293.016,460.838z       M267.881,457.543c-0.464,0-1.008,0.357-1.53,1.008c-1.483,1.84-2.572,5.773-2.036,9.491c2.811-0.051,5.148-1.307,6.123-3.306      c0.915-1.876,0.513-4.138-1.102-6.208C268.985,458.078,268.448,457.543,267.881,457.543z M307.685,447.179      c-4.655,1.053-7.912,5.322-7.843,7.042c0.009,0.203,0.02,0.48,0.883,0.48c0.002,0,0.002,0,0.002,0      c0.172,0,0.359-0.013,0.562-0.04C304.622,454.23,307.125,451.233,307.685,447.179z M283.808,437.382      c-1.653,2.982-2.197,6.498-0.169,8.231c0.658,0.56,1.28,0.859,1.798,0.859c0.776-0.002,1.156-0.741,1.314-1.18      C287.315,443.711,286.92,440.436,283.808,437.382z"/>
			</g>
		</g>
		<g>
			<g>
				<path style="fill:#FFFFFF;" d="M402.386,210.469c0,0-2.205-16.74,13.908-11.324c16.113,5.416,10.863,20.743,4.72,15.498      c-6.143-5.245,5.383-23.033,17.713-15.112c12.33,7.921,9.572,23.291,0.826,24.425c-8.746,1.134,5.295-17.896,16.312-6.143      c11.018,11.753-13.038,33.18-22.875,25.302c-9.837-7.878-2.139-20.593,0.221-12.844c2.36,7.749-4.004,15.348-21.452,15.048      c-17.448-0.3-9.506-27.144-3.407-19.33c6.099,7.813-4.026,16.633-16.334,7.427C379.71,224.211,393.751,205.181,402.386,210.469z      "/>
			</g>
			<g>
				<path style="fill:#241726;" d="M412.753,246.469l-1.015-0.009c-5.726-0.098-9.757-3.029-11.18-8.079      c-3.009-0.384-6.181-1.773-9.226-4.051c-4.832-3.614-6.467-9.101-4.488-15.05c2.028-6.092,7.426-10.865,12.293-10.865      c0.691,0,1.361,0.091,2.003,0.272c-0.018-2.338,0.35-6.286,2.708-8.974c2.648-3.018,6.995-3.607,12.808-1.651      c2.231,0.749,4.187,1.722,5.829,2.898c4.658-4.896,11.281-5.969,16.859-2.389c5.329,3.422,8.566,8.684,8.838,14.258      c3.125,0.094,5.989,1.508,8.517,4.202c3.438,3.667,4.071,8.592,1.782,13.87c-3.473,8.019-12.96,15.055-20.301,15.055      c-2.302,0-4.29-0.656-5.905-1.95c-0.765-0.613-1.457-1.274-2.066-1.976C426.354,244.939,420.355,246.469,412.753,246.469z       M402.981,238.468c0.999,2.804,3.359,5.615,8.798,5.708l0.975,0.009c8.744,0,13.529-2.046,16.101-3.995      c-2.449-3.977-2.257-8.322-0.888-11.015c0.792-1.564,1.947-2.46,3.165-2.46c0.819,0,2.318,0.419,3.172,3.223      c1.182,3.883,0.31,7.678-2.391,10.569c0.526,0.609,1.124,1.182,1.791,1.715c1.2,0.961,2.706,1.45,4.477,1.45      c6.426,0,15.104-6.52,18.207-13.678c1.345-3.105,2.202-7.604-1.356-11.401c-2.088-2.228-4.41-3.4-6.904-3.48      c-0.535,5.351-3.89,9.387-8.427,9.975c-0.308,0.04-0.593,0.058-0.857,0.058l0,0c-2.258,0-3.116-1.381-3.17-2.672      c-0.127-3.159,4.417-8.463,10.232-9.48c-0.219-4.854-3.078-9.471-7.796-12.501c-4.633-2.98-9.944-2.101-13.857,1.925      c3.799,3.629,4.504,8.086,3.44,11.064c-1.191,3.339-4.655,4.39-7.421,2.028c-3.395-2.898-2.307-8.552,0.749-12.788      c-1.43-1.002-3.136-1.838-5.09-2.496c-4.863-1.633-8.338-1.316-10.364,0.993c-2.79,3.181-2.057,9.043-2.048,9.101      c0.056,0.437-0.143,0.868-0.511,1.106c-0.37,0.239-0.843,0.245-1.218,0.018c-0.808-0.495-1.7-0.745-2.652-0.745      c-3.877,0-8.419,4.173-10.125,9.302c-0.781,2.347-1.983,8.258,3.689,12.501c2.472,1.849,5.001,3.04,7.399,3.495      c-0.426-3.917,0.576-8.222,2.585-10.718c0.982-1.216,2.126-1.858,3.31-1.858c0.821,0,2.052,0.323,3.257,1.865      c2.173,2.784,2.666,5.925,1.352,8.615C409.314,236.548,406.432,238.256,402.981,238.468z M431.132,228.999      c-0.199,0-0.683,0.33-1.129,1.211c-0.995,1.956-1.162,5.273,0.562,8.378c1.898-2.244,2.452-5.035,1.553-7.986      C431.721,229.294,431.261,228.999,431.132,228.999z M405.997,225.704c-0.464,0-1.008,0.359-1.53,1.008      c-1.483,1.84-2.572,5.773-2.039,9.491c2.813-0.051,5.148-1.307,6.125-3.306c0.914-1.876,0.513-4.138-1.102-6.208      C407.101,226.242,406.563,225.704,405.997,225.704z M445.801,215.343c-4.655,1.051-7.912,5.32-7.843,7.04      c0.007,0.203,0.018,0.48,0.883,0.48c0.002,0,0.002,0,0.002,0c0.172,0,0.359-0.013,0.562-0.04      C442.738,222.392,445.241,219.394,445.801,215.343z M422.785,204.178c-2.621,3.663-3.121,7.81-1.031,9.596      c1.577,1.343,3.101,0.861,3.788-1.06C426.34,210.476,425.749,207.076,422.785,204.178z"/>
			</g>
		</g>
		<g>
			<path style="fill:#F5D450;" d="M142.382,242.082c0,0,107.689,76.921,123.073,76.921c15.384,0,115.381-84.613,115.381-84.613     c17.948,12.82,20.512,169.226,7.692,176.918c-12.82,7.692-230.763,17.948-243.583,5.128     C132.126,403.616,132.126,234.39,142.382,242.082z"/>
		</g>
		<g>
			<path style="fill:#EF9A36;" d="M144.946,416.436c0,0,97.433-99.997,120.509-97.433c23.076,2.564,135.889,89.715,123.074,92.305     C265.011,436.271,137.706,425.421,144.946,416.436z"/>
		</g>
		<g>
			<path style="fill:#E55D83;" d="M300.29,303.705c0,0,78.028,80.339,81.496,79.184c3.468-1.156,23.119-21.963,24.275-25.431     c1.156-3.468-82.073-80.918-85.541-79.762C317.052,278.852,300.29,303.705,300.29,303.705z"/>
		</g>
		<g>
			<path style="fill:#00AACF;" d="M336.131,346.134c0,0,71.096,74.205,75.266,72.157c4.169-2.048,30.837-29.776,32.885-33.945     c2.048-4.169-69.559-76.482-73.729-74.434C366.384,311.959,336.131,346.134,336.131,346.134z"/>
		</g>
		<g>
			<path style="fill:#9D5580;" d="M262.356,155.691c-50.872,0-92.112,41.24-92.112,92.113s41.24,92.113,92.112,92.113     s92.113-41.24,92.113-92.113S313.229,155.691,262.356,155.691z M262.356,310.158c-34.437,0-62.354-27.917-62.354-62.354     c0-34.437,27.917-62.354,62.354-62.354s62.354,27.917,62.354,62.354C324.711,282.241,296.794,310.158,262.356,310.158z"/>
		</g>
		<g>
			<path style="fill:#E55D83;" d="M234.64,222.856l26.032,23.028c0,0,46.056-73.089,51.062-71.087     c5.006,2.003,22.027,20.025,22.027,20.025s-64.078,92.113-70.086,91.111c-6.007-1.001-52.064-40.049-49.06-42.051     C217.62,241.879,234.64,222.856,234.64,222.856z"/>
		</g>
		<g>
			<g>
				<path style="fill:#E55D83;" d="M315.792,47.11c0,0,62.604-27.918,68.526-22.842c5.922,5.076,17.766,42.3,20.304,46.53      c2.538,4.23-61.758,33.84-67.679,30.456C331.02,97.87,309.87,49.648,315.792,47.11z"/>
			</g>
			<g>
				<path style="fill:#FDFFFF;" d="M344.556,53.878c0,0,11.844,27.918,16.074,25.38c4.23-2.538,16.074-21.996,13.536-26.226      C371.628,48.802,343.71,51.34,344.556,53.878z"/>
			</g>
		</g>
		<g>
			<path style="fill:#E55D83;" d="M455.732,322.821c0,0-39.435-15.877-35.338-34.826c4.097-18.949,23.046-13.828,29.704-1.536     c0,0,5.633-22.022,21.51-16.389C487.484,275.704,461.877,322.309,455.732,322.821z"/>
		</g>
		<g>
			<path style="fill:#241726;" d="M372.247,185.117c-0.6,0-1.102-0.466-1.14-1.073c0,0-0.04-0.645-0.04-1.751     c0-0.779,0.02-1.785,0.087-2.958c0.036-0.627,0.524-1.133,1.204-1.075c0.629,0.036,1.111,0.576,1.075,1.205     c-0.062,1.12-0.082,2.086-0.082,2.828c0,1.002,0.036,1.595,0.036,1.613c0.038,0.629-0.442,1.169-1.071,1.209     C372.294,185.115,372.269,185.117,372.247,185.117z M372.756,175.99c-0.056,0-0.112-0.005-0.167-0.011     c-0.625-0.092-1.057-0.672-0.966-1.296c0.236-1.604,0.544-3.152,0.917-4.604c0.158-0.611,0.774-0.979,1.392-0.821     c0.609,0.158,0.977,0.781,0.821,1.392c-0.353,1.372-0.645,2.84-0.868,4.363C373.799,175.581,373.313,175.99,372.756,175.99z      M408.874,172.684c-0.013,0.002-0.228-0.002-0.245-0.002c-0.629-0.022-1.122-0.551-1.102-1.182     c0.022-0.629,0.56-1.084,1.182-1.102c0.004,0,0.011,0,0.018,0c1.381,0,2.639-0.384,3.614-1.053     c0.524-0.357,1.234-0.223,1.588,0.294c0.357,0.52,0.225,1.231-0.295,1.588C412.267,172.166,410.576,172.684,408.874,172.684z      M404.509,171.049c-0.274,0-0.551-0.098-0.77-0.299c-1.218-1.111-2.07-2.625-2.536-4.497c-0.152-0.611,0.221-1.231,0.834-1.383     c0.611-0.154,1.229,0.223,1.383,0.834c0.355,1.425,0.979,2.556,1.858,3.359c0.466,0.426,0.5,1.146,0.074,1.613     C405.127,170.924,404.819,171.049,404.509,171.049z M375.069,167.163c-0.145,0-0.29-0.027-0.433-0.085     c-0.585-0.239-0.863-0.906-0.625-1.49c0.631-1.546,1.367-2.973,2.188-4.243c0.344-0.529,1.051-0.683,1.579-0.339     c0.529,0.341,0.683,1.048,0.339,1.579c-0.743,1.151-1.414,2.452-1.992,3.868C375.945,166.895,375.519,167.163,375.069,167.163z      M415.254,166.516l-1.14-0.051c0-1.122-0.491-2.193-1.461-3.281c-0.419-0.473-0.379-1.193,0.091-1.613     c0.471-0.421,1.191-0.379,1.613,0.092c1.354,1.521,2.041,3.103,2.041,4.702L415.254,166.516z M401.948,162.586     c-0.004,0-0.009,0-0.013,0c-0.629-0.007-1.135-0.524-1.129-1.155c0.018-1.586,0.071-3.083,0.172-4.49l-0.143-0.047     c-1.343-0.424-2.648-0.767-3.877-1.017c-0.618-0.127-1.017-0.729-0.892-1.347c0.127-0.62,0.741-1.013,1.347-0.892     c1.307,0.268,2.69,0.631,4.111,1.08l0.428,0.136c0.473,0.156,0.776,0.593,0.785,1.064c0.343,0.219,0.56,0.616,0.529,1.048     c-0.105,1.408-0.158,2.902-0.176,4.493C403.083,162.082,402.573,162.586,401.948,162.586z M409.947,160.723     c-0.203,0-0.408-0.054-0.595-0.167c-1.122-0.685-2.44-1.35-3.922-1.981c-0.582-0.248-0.852-0.917-0.605-1.497     c0.248-0.582,0.921-0.852,1.497-0.605c1.584,0.674,3.002,1.39,4.22,2.133c0.538,0.328,0.707,1.031,0.379,1.57     C410.708,160.529,410.331,160.723,409.947,160.723z M380.063,159.603c-0.306,0-0.611-0.123-0.834-0.364     c-0.431-0.462-0.406-1.184,0.056-1.613c1.209-1.129,2.559-2.063,4.009-2.777c0.56-0.277,1.249-0.047,1.528,0.52     c0.279,0.564,0.047,1.249-0.52,1.528c-1.249,0.616-2.414,1.423-3.46,2.398C380.621,159.501,380.342,159.603,380.063,159.603z      M388.116,155.613c-0.54,0-1.022-0.386-1.122-0.939c-0.112-0.62,0.301-1.213,0.921-1.327c1.501-0.272,3.098-0.372,4.791-0.306     c0.629,0.027,1.12,0.558,1.095,1.189c-0.027,0.629-0.547,1.129-1.189,1.095c-1.523-0.062-2.953,0.029-4.292,0.27     C388.252,155.606,388.185,155.613,388.116,155.613z M402.684,153.498c-0.069,0-0.141-0.007-0.21-0.02     c-0.62-0.114-1.03-0.709-0.915-1.329c0.317-1.718,0.736-3.223,1.283-4.6c0.232-0.591,0.897-0.877,1.483-0.642     c0.584,0.232,0.872,0.897,0.64,1.481c-0.491,1.24-0.87,2.605-1.162,4.176C403.704,153.114,403.224,153.498,402.684,153.498z      M406.148,145.162c-0.25,0-0.5-0.08-0.709-0.248c-0.495-0.39-0.578-1.109-0.185-1.604c0.997-1.26,2.168-2.342,3.585-3.31     c0.52-0.357,1.231-0.225,1.586,0.297c0.357,0.52,0.225,1.231-0.297,1.586c-1.222,0.839-2.231,1.769-3.085,2.846     C406.818,145.013,406.485,145.162,406.148,145.162z M413.507,139.967c-0.451,0-0.877-0.268-1.057-0.712     c-0.239-0.584,0.042-1.251,0.627-1.488c1.345-0.546,2.808-1.026,4.475-1.461c0.618-0.172,1.236,0.203,1.394,0.814     c0.161,0.611-0.205,1.236-0.814,1.394c-1.548,0.406-2.96,0.866-4.194,1.367C413.797,139.94,413.65,139.967,413.507,139.967z      M422.301,137.587c-0.542,0-1.024-0.388-1.122-0.941c-0.111-0.62,0.303-1.214,0.924-1.325c1.428-0.254,2.951-0.484,4.573-0.687     c0.611-0.092,1.198,0.364,1.276,0.99c0.078,0.627-0.366,1.198-0.99,1.276c-1.582,0.199-3.065,0.419-4.457,0.669     C422.437,137.58,422.367,137.587,422.301,137.587z M431.352,136.416c-0.582,0-1.077-0.442-1.135-1.033     c-0.058-0.629,0.402-1.187,1.028-1.247l0.281-0.027c0.627-0.04,1.184,0.399,1.247,1.028c0.06,0.629-0.401,1.187-1.028,1.247     l-0.281,0.027C431.426,136.413,431.391,136.416,431.352,136.416z"/>
		</g>
		<g>
			<path style="fill:#241726;" d="M143.83,218.62c-0.056,0-0.112-0.004-0.167-0.013c-0.625-0.091-1.055-0.671-0.966-1.294     c0.005-0.027,0.118-0.818,0.194-2.119c0.036-0.629,0.569-1.144,1.207-1.073c0.629,0.036,1.111,0.575,1.073,1.207     c-0.083,1.445-0.212,2.315-0.212,2.315C144.874,218.212,144.386,218.62,143.83,218.62z M144.031,211.834     c-0.602,0-1.106-0.468-1.14-1.077c-0.087-1.523-0.263-3-0.522-4.392c-0.116-0.62,0.292-1.216,0.912-1.332     c0.609-0.112,1.216,0.29,1.332,0.912c0.279,1.486,0.466,3.061,0.558,4.682c0.036,0.629-0.444,1.169-1.075,1.205     C144.073,211.834,144.051,211.834,144.031,211.834z M116.527,205.069c-0.593,0-1.162-0.152-1.686-0.451     c-0.549-0.312-0.74-1.008-0.428-1.557c0.31-0.551,1.008-0.747,1.557-0.428c0.716,0.406,1.651-0.056,2.44-1.104     c0.384-0.506,1.1-0.607,1.599-0.225c0.504,0.379,0.604,1.095,0.225,1.599C119.184,204.299,117.867,205.069,116.527,205.069z      M142.313,202.885c-0.469,0-0.906-0.29-1.075-0.754c-0.509-1.414-1.138-2.724-1.867-3.895c-0.332-0.538-0.169-1.24,0.366-1.575     c0.54-0.326,1.24-0.167,1.575,0.366c0.812,1.309,1.512,2.764,2.077,4.328c0.214,0.593-0.094,1.249-0.687,1.463     C142.572,202.862,142.443,202.885,142.313,202.885z M113.261,200.884c-0.549,0-1.033-0.397-1.124-0.957     c-0.08-0.482-0.118-0.966-0.12-1.457c0-1.238,0.243-2.46,0.725-3.64c0.239-0.585,0.903-0.866,1.49-0.624     c0.582,0.239,0.863,0.905,0.625,1.488c-0.368,0.903-0.555,1.836-0.555,2.771c0.002,0.364,0.031,0.732,0.089,1.093     c0.103,0.622-0.319,1.209-0.941,1.312C113.386,200.879,113.324,200.884,113.261,200.884z M120.99,199.153     c-0.06,0-0.123-0.004-0.183-0.013c-0.622-0.1-1.046-0.687-0.948-1.309c0.107-0.66,0.161-1.35,0.161-2.046     c0-0.707-0.054-1.434-0.161-2.159c-0.089-0.625,0.341-1.205,0.966-1.296c0.604-0.074,1.202,0.339,1.296,0.966     c0.12,0.834,0.183,1.673,0.183,2.489c0,0.816-0.062,1.626-0.187,2.407C122.025,198.753,121.541,199.153,120.99,199.153z      M137.466,195.238c-0.281,0-0.562-0.103-0.783-0.31c-1.028-0.966-2.193-1.793-3.455-2.454c-0.56-0.295-0.776-0.984-0.484-1.541     c0.294-0.56,0.99-0.767,1.541-0.484c1.45,0.758,2.781,1.706,3.964,2.815c0.459,0.431,0.482,1.153,0.049,1.615     C138.073,195.118,137.769,195.238,137.466,195.238z M116.484,192.764c-0.326,0-0.649-0.138-0.874-0.408     c-0.406-0.484-0.344-1.204,0.141-1.608c0.837-0.703,1.773-1.283,2.799-1.733c-0.48-1.144-1.075-2.295-1.776-3.428     c-0.33-0.538-0.163-1.242,0.373-1.573c0.535-0.324,1.24-0.167,1.573,0.372c0.819,1.329,1.508,2.684,2.054,4.029     c0.384,0.096,0.707,0.386,0.823,0.794c0.174,0.607-0.176,1.238-0.783,1.412c-1.37,0.393-2.579,1.024-3.596,1.876     C117.004,192.677,116.743,192.764,116.484,192.764z M129.516,190.942c-0.105,0-0.21-0.013-0.317-0.045     c-1.461-0.422-2.884-0.667-4.232-0.73c-0.629-0.029-1.118-0.562-1.086-1.193c0.027-0.629,0.58-1.169,1.194-1.086     c1.523,0.069,3.125,0.344,4.758,0.814c0.604,0.174,0.955,0.808,0.781,1.414C130.468,190.616,130.013,190.942,129.516,190.942z      M115.077,182.43c-0.328,0-0.654-0.141-0.879-0.413c-0.908-1.093-1.925-2.186-3.027-3.25c-0.453-0.437-0.466-1.16-0.027-1.615     c0.437-0.453,1.16-0.464,1.615-0.027c1.16,1.12,2.235,2.275,3.197,3.433c0.404,0.486,0.337,1.204-0.149,1.608     C115.592,182.343,115.333,182.43,115.077,182.43z M79.871,177.504c-0.254,0-0.509-0.085-0.721-0.257     c-0.488-0.397-0.564-1.115-0.167-1.604c0.053-0.067,1.321-1.617,3.6-3.275c0.509-0.368,1.222-0.259,1.595,0.252     c0.37,0.511,0.259,1.225-0.252,1.595c-2.019,1.47-3.159,2.853-3.17,2.866C80.531,177.359,80.201,177.504,79.871,177.504z      M108.523,176.092c-0.245,0-0.491-0.078-0.698-0.239c-1.216-0.939-2.447-1.764-3.658-2.452c-0.549-0.31-0.741-1.008-0.428-1.557     c0.31-0.551,1.006-0.745,1.557-0.428c1.303,0.738,2.623,1.624,3.926,2.63c0.5,0.386,0.591,1.102,0.205,1.602     C109.201,175.941,108.865,176.092,108.523,176.092z M87.207,172.158c-0.439,0-0.859-0.257-1.046-0.685     c-0.252-0.58,0.011-1.251,0.589-1.504c1.508-0.658,3.067-1.122,4.635-1.383c0.629-0.107,1.209,0.317,1.314,0.939     c0.103,0.622-0.317,1.211-0.939,1.314c-1.383,0.23-2.761,0.64-4.095,1.222C87.515,172.126,87.361,172.158,87.207,172.158z      M100.58,171.667c-0.123,0-0.245-0.02-0.368-0.06c-1.401-0.477-2.813-0.785-4.194-0.915c-0.629-0.06-1.089-0.618-1.031-1.245     c0.06-0.629,0.66-1.069,1.245-1.031c1.559,0.147,3.145,0.493,4.716,1.026c0.596,0.203,0.917,0.852,0.714,1.45     C101.499,171.368,101.055,171.667,100.58,171.667z"/>
		</g>
		<g>
			<g>
				<g>
					<path style="fill:#9D5580;" d="M103.725,71.267c0,0,19.925-13.447,23.258-22.334c3.333-8.887-3.333-24.44,5.554-23.329       c8.887,1.111,10.691,19.757,15.135,24.201c4.444,4.444,21.196-2.488,24.529,3.066c3.333,5.555,11.438,38.277,10.327,47.164       c-1.111,8.887-28.724,7.004-40.477,10.07c-10.141,2.646-17.619,7.154-20.952,7.154       C117.767,117.258,94.838,80.154,103.725,71.267z"/>
				</g>
				<g>
					<path style="fill:#F5D450;" d="M82.304,72.229c0,0,23.454-12.856,27.719-9.106c4.264,3.75,23.987,52.496,20.256,54.639       c-3.731,2.143-25.587,11.785-28.785,11.249C98.295,128.475,76.44,74.907,82.304,72.229z"/>
				</g>
			</g>
			<g>
				<path style="fill:#241726;" d="M173.866,64.131c-0.208,0-0.417-0.056-0.605-0.174c-5.282-3.304-14.162-0.625-14.249-0.6      c-0.611,0.194-1.245-0.152-1.428-0.754c-0.188-0.604,0.152-1.242,0.754-1.428c0.408-0.125,9.978-3.003,16.132,0.845      c0.535,0.334,0.698,1.04,0.364,1.573C174.618,63.942,174.245,64.131,173.866,64.131z"/>
			</g>
			<g>
				<path style="fill:#241726;" d="M178.207,78.599c-0.207,0-0.417-0.056-0.604-0.174c-5.289-3.304-14.165-0.629-14.249-0.602      c-0.613,0.196-1.242-0.152-1.428-0.754c-0.187-0.604,0.152-1.243,0.754-1.428c0.408-0.125,9.973-3.003,16.132,0.848      c0.535,0.335,0.698,1.04,0.364,1.573C178.958,78.41,178.586,78.599,178.207,78.599z"/>
			</g>
			<g>
				<path style="fill:#241726;" d="M181.1,95.236c-0.208,0-0.417-0.056-0.604-0.174c-5.287-3.301-14.163-0.629-14.249-0.602      c-0.609,0.192-1.242-0.149-1.428-0.754c-0.187-0.604,0.152-1.243,0.754-1.428c0.408-0.125,9.978-3.003,16.132,0.848      c0.535,0.335,0.698,1.04,0.364,1.573C181.852,95.046,181.479,95.236,181.1,95.236z"/>
			</g>
		</g>
		<g>
			<path style="fill:#241726;" d="M281.029,512c-0.005,0-0.009,0-0.016,0c-1.591-0.02-3.134-0.091-4.631-0.207     c-0.629-0.047-1.1-0.596-1.051-1.225c0.047-0.631,0.66-1.144,1.225-1.051c1.452,0.111,2.947,0.178,4.488,0.198     c0.629,0.009,1.135,0.526,1.126,1.158C282.162,511.498,281.653,512,281.029,512z M285.595,511.924     c-0.609,0-1.113-0.477-1.14-1.091c-0.029-0.629,0.457-1.164,1.089-1.191c1.461-0.067,2.96-0.172,4.497-0.323     c0.629-0.027,1.189,0.399,1.249,1.026c0.06,0.629-0.399,1.187-1.026,1.249c-1.577,0.152-3.116,0.261-4.617,0.328     C285.628,511.924,285.61,511.924,285.595,511.924z M271.941,511.286c-0.058,0-0.114-0.004-0.172-0.013     c-1.553-0.232-3.092-0.522-4.573-0.861c-0.613-0.141-0.997-0.754-0.857-1.37c0.141-0.611,0.734-1.008,1.37-0.857     c1.423,0.326,2.902,0.605,4.399,0.83c0.622,0.091,1.053,0.673,0.959,1.298C272.983,510.88,272.496,511.286,271.941,511.286z      M294.687,511.047c-0.558,0-1.046-0.408-1.129-0.977c-0.089-0.625,0.341-1.205,0.966-1.296c1.169-0.17,2.355-0.364,3.562-0.58     l0.899-0.165c0.609-0.118,1.216,0.292,1.33,0.915c0.116,0.62-0.295,1.216-0.915,1.329l-0.906,0.169     c-1.236,0.221-2.449,0.419-3.641,0.593C294.799,511.043,294.743,511.047,294.687,511.047z M303.65,509.341     c-0.518,0-0.986-0.352-1.111-0.877c-0.147-0.613,0.232-1.229,0.845-1.376c1.519-0.364,2.965-0.75,4.339-1.162     c0.611-0.176,1.24,0.165,1.423,0.767c0.181,0.605-0.163,1.24-0.767,1.423c-1.414,0.422-2.9,0.821-4.464,1.194     C303.826,509.332,303.737,509.341,303.65,509.341z M263.052,509.232c-0.116,0-0.234-0.018-0.35-0.056     c-1.495-0.48-2.967-1.031-4.376-1.637c-0.58-0.248-0.848-0.919-0.598-1.499c0.248-0.582,0.921-0.852,1.499-0.598     c1.345,0.576,2.748,1.102,4.176,1.561c0.6,0.192,0.93,0.837,0.736,1.437C263.984,508.924,263.534,509.232,263.052,509.232z      M312.365,506.716c-0.462,0-0.897-0.283-1.069-0.741c-0.223-0.591,0.076-1.249,0.667-1.47c1.441-0.542,2.824-1.122,4.109-1.729     c0.564-0.261,1.249-0.027,1.519,0.546c0.27,0.569,0.025,1.249-0.547,1.519c-1.338,0.634-2.779,1.238-4.278,1.8     C312.635,506.693,312.499,506.716,312.365,506.716z M254.676,505.629c-0.187,0-0.377-0.047-0.553-0.143     c-1.374-0.761-2.713-1.597-3.973-2.483c-0.518-0.364-0.643-1.075-0.279-1.59c0.366-0.518,1.077-0.64,1.59-0.279     c1.196,0.841,2.463,1.631,3.768,2.353c0.551,0.306,0.752,1.001,0.446,1.553C255.465,505.417,255.077,505.629,254.676,505.629z      M320.576,502.814c-0.388,0-0.765-0.198-0.979-0.555c-0.326-0.542-0.149-1.242,0.393-1.566c1.294-0.774,2.521-1.608,3.647-2.48     c0.495-0.386,1.211-0.297,1.602,0.205c0.386,0.497,0.294,1.216-0.205,1.602c-1.198,0.926-2.501,1.811-3.87,2.632     C320.98,502.763,320.777,502.814,320.576,502.814z M247.225,500.38c-0.27,0-0.54-0.096-0.758-0.288     c-1.18-1.048-2.3-2.166-3.326-3.321c-0.419-0.471-0.375-1.193,0.096-1.613c0.466-0.415,1.193-0.377,1.613,0.096     c0.966,1.089,2.021,2.141,3.134,3.13c0.471,0.419,0.515,1.142,0.096,1.613C247.854,500.251,247.54,500.38,247.225,500.38z      M327.745,497.251c-0.29,0-0.582-0.109-0.805-0.332c-0.446-0.444-0.451-1.167-0.004-1.615c1.022-1.028,1.987-2.146,2.873-3.322     c0.381-0.508,1.1-0.6,1.599-0.225c0.504,0.379,0.604,1.095,0.225,1.599c-0.948,1.258-1.983,2.454-3.078,3.558     C328.332,497.137,328.04,497.251,327.745,497.251z M218.548,494.353c-0.618,0-1.126-0.493-1.142-1.113     c-0.016-0.629,0.482-1.156,1.113-1.171c1.441-0.038,2.904-0.196,4.348-0.477c0.609-0.112,1.216,0.283,1.338,0.906     c0.118,0.618-0.285,1.218-0.906,1.338c-1.566,0.303-3.154,0.477-4.722,0.518C218.568,494.353,218.557,494.353,218.548,494.353z      M214,494.09c-0.056,0-0.109-0.004-0.165-0.011c-1.552-0.223-3.112-0.578-4.631-1.057c-0.6-0.187-0.935-0.83-0.745-1.432     c0.187-0.6,0.836-0.932,1.432-0.745c1.401,0.439,2.837,0.767,4.269,0.972c0.625,0.089,1.057,0.669,0.968,1.294     C215.046,493.68,214.557,494.09,214,494.09z M241.18,493.561c-0.364,0-0.72-0.174-0.941-0.497     c-0.906-1.32-1.715-2.688-2.405-4.062c-0.283-0.564-0.058-1.249,0.506-1.533c0.558-0.29,1.251-0.06,1.533,0.506     c0.647,1.283,1.403,2.561,2.249,3.799c0.357,0.52,0.225,1.231-0.297,1.586C241.629,493.497,241.403,493.561,241.18,493.561z      M227.482,492.633c-0.466,0-0.906-0.288-1.073-0.752c-0.216-0.593,0.089-1.247,0.683-1.463c1.372-0.5,2.719-1.109,4.004-1.809     c0.547-0.306,1.247-0.1,1.548,0.455c0.303,0.553,0.1,1.247-0.455,1.548c-1.385,0.758-2.837,1.414-4.316,1.952     C227.743,492.611,227.611,492.633,227.482,492.633z M205.311,491.373c-0.17,0-0.341-0.038-0.504-0.118     c-1.379-0.676-2.75-1.47-4.082-2.356c-0.524-0.35-0.667-1.057-0.317-1.584c0.353-0.526,1.062-0.665,1.584-0.317     c1.247,0.83,2.534,1.573,3.823,2.208c0.567,0.277,0.799,0.961,0.522,1.528C206.137,491.139,205.733,491.373,205.311,491.373z      M333.217,490.001c-0.192,0-0.386-0.047-0.564-0.149c-0.549-0.312-0.741-1.008-0.428-1.557c0.689-1.216,1.343-2.516,1.992-3.977     c0.257-0.578,0.932-0.832,1.508-0.58c0.578,0.257,0.836,0.932,0.58,1.508c-0.683,1.53-1.367,2.898-2.095,4.178     C334,489.794,333.614,490.001,333.217,490.001z M235.477,488.272c-0.344,0-0.685-0.156-0.91-0.451     c-0.381-0.504-0.283-1.22,0.219-1.602c0.513-0.388,1.008-0.79,1.481-1.202c-0.103-0.116-0.183-0.254-0.232-0.41     c-0.52-1.635-0.852-3.217-0.988-4.704c-0.058-0.629,0.406-1.185,1.033-1.242c0.609-0.038,1.182,0.406,1.243,1.033     c0.105,1.147,0.343,2.367,0.712,3.632c0.004-0.007,0.011-0.013,0.018-0.02c0.431-0.455,1.158-0.48,1.615-0.045     c0.457,0.433,0.477,1.155,0.045,1.615c-1.053,1.113-2.244,2.179-3.542,3.165C235.961,488.197,235.717,488.272,235.477,488.272z      M197.716,486.343c-0.261,0-0.524-0.089-0.738-0.27c-0.988-0.836-1.976-1.749-2.936-2.708l-0.48-0.482     c-0.442-0.448-0.437-1.171,0.013-1.615c0.444-0.442,1.167-0.437,1.615,0.013l0.462,0.462c0.919,0.921,1.86,1.789,2.802,2.585     c0.482,0.408,0.54,1.129,0.134,1.611C198.363,486.205,198.039,486.343,197.716,486.343z M336.974,481.69     c-0.134,0-0.27-0.022-0.401-0.074c-0.591-0.221-0.89-0.879-0.667-1.47c0.319-0.848,0.625-1.689,0.926-2.518l0.647-1.767     c0.219-0.589,0.872-0.895,1.468-0.674c0.591,0.219,0.892,0.877,0.674,1.468l-0.642,1.755c-0.303,0.834-0.614,1.682-0.935,2.539     C337.87,481.406,337.435,481.69,336.974,481.69z M241.64,481.603c-0.196,0-0.393-0.049-0.573-0.154     c-0.544-0.317-0.732-1.015-0.415-1.562c0.781-1.347,1.196-2.581,1.198-3.567c0.002-0.622,0.497-1.211,1.12-1.222     c0.613,0.011,1.135,0.39,1.162,1.013c0,1.599-0.522,3.228-1.503,4.923C242.416,481.4,242.032,481.603,241.64,481.603z      M191.303,479.847c-0.323,0-0.647-0.138-0.874-0.406c-1.028-1.222-1.987-2.467-2.846-3.701c-0.361-0.517-0.234-1.229,0.283-1.59     c0.515-0.359,1.231-0.237,1.59,0.283c0.821,1.178,1.736,2.367,2.721,3.535c0.406,0.482,0.344,1.202-0.138,1.611     C191.825,479.758,191.564,479.847,191.303,479.847z M236.621,476.432c-0.136,0-0.274-0.025-0.41-0.076     c-0.589-0.225-0.881-0.888-0.656-1.477c0.843-2.195,2.574-3.315,4.8-2.906c0.62,0.114,1.028,0.712,0.912,1.332     c-0.116,0.622-0.723,1.028-1.332,0.912c-0.154-0.029-0.303-0.042-0.446-0.042c-0.301,0-1.218,0-1.802,1.526     C237.513,476.153,237.08,476.432,236.621,476.432z M340.255,473.164c-0.158,0-0.317-0.033-0.471-0.1     c-0.576-0.261-0.83-0.937-0.571-1.512c0.729-1.613,1.475-2.976,2.28-4.164c0.355-0.524,1.068-0.663,1.584-0.308     c0.524,0.352,0.662,1.062,0.308,1.584c-0.729,1.084-1.414,2.335-2.088,3.83C341.105,472.914,340.69,473.164,340.255,473.164z      M186.11,472.352c-0.404,0-0.794-0.214-1.002-0.596c-0.774-1.416-1.443-2.855-1.99-4.274c-0.225-0.589,0.067-1.249,0.656-1.477     c0.596-0.223,1.251,0.069,1.477,0.656c0.511,1.327,1.135,2.672,1.86,4.002c0.303,0.553,0.1,1.247-0.455,1.548     C186.482,472.308,186.295,472.352,186.11,472.352z M345.428,465.763c-0.321,0-0.64-0.134-0.866-0.397     c-0.413-0.477-0.357-1.2,0.121-1.611c1.223-1.053,2.559-1.903,4.087-2.599c0.569-0.257,1.251-0.009,1.512,0.567     c0.261,0.573,0.009,1.251-0.567,1.512c-1.327,0.604-2.485,1.341-3.542,2.251C345.956,465.672,345.691,465.763,345.428,465.763z      M182.869,463.845c-0.526,0-0.999-0.364-1.115-0.899c-0.341-1.555-0.549-3.141-0.62-4.713c-0.029-0.629,0.457-1.164,1.089-1.191     c0.631-0.087,1.164,0.457,1.191,1.089c0.067,1.441,0.259,2.9,0.571,4.33c0.136,0.616-0.257,1.225-0.872,1.359     C183.029,463.836,182.949,463.845,182.869,463.845z M353.543,461.94c-0.524,0-0.997-0.366-1.113-0.899     c-0.134-0.618,0.257-1.225,0.872-1.358c1.428-0.31,2.993-0.526,4.658-0.645c0.567-0.042,1.176,0.428,1.22,1.059     c0.045,0.629-0.431,1.176-1.06,1.22c-1.555,0.109-3.014,0.31-4.332,0.596C353.706,461.931,353.623,461.94,353.543,461.94z      M367.163,461.509c-0.036,0-0.074-0.002-0.109-0.004c-1.566-0.147-3.074-0.239-4.481-0.274c-0.631-0.016-1.129-0.54-1.113-1.171     c0.016-0.62,0.524-1.113,1.142-1.113c0.009,0,0.018,0,0.029,0c1.459,0.038,3.02,0.132,4.638,0.283     c0.627,0.06,1.089,0.616,1.031,1.245C368.243,461.065,367.745,461.509,367.163,461.509z M182.469,454.766     c-0.049,0-0.1-0.002-0.149-0.009c-0.625-0.083-1.066-0.654-0.986-1.28c0.203-1.553,0.544-3.116,1.015-4.646     c0.183-0.605,0.812-0.948,1.428-0.754c0.602,0.185,0.941,0.823,0.754,1.427c-0.433,1.405-0.745,2.842-0.93,4.267     C183.525,454.346,183.034,454.766,182.469,454.766z M185.117,446.064c-0.167,0-0.337-0.036-0.498-0.114     c-0.569-0.274-0.805-0.957-0.531-1.526c0.671-1.39,1.463-2.768,2.353-4.1c0.352-0.522,1.059-0.66,1.586-0.314     c0.524,0.352,0.665,1.059,0.314,1.586c-0.832,1.242-1.57,2.53-2.197,3.823C185.947,445.828,185.541,446.064,185.117,446.064z      M190.167,438.473c-0.265,0-0.533-0.091-0.749-0.281c-0.475-0.413-0.526-1.133-0.111-1.61c1.867-2.148,3.319-3.328,3.382-3.377     c0.493-0.395,1.211-0.314,1.604,0.172c0.397,0.491,0.319,1.211-0.17,1.606c-0.013,0.011-1.37,1.115-3.094,3.098     C190.803,438.339,190.486,438.473,190.167,438.473z"/>
		</g>
		<g>
			<path style="fill:#241726;" d="M429.358,345.856c-3.779,0-5.351-0.477-5.8-1.762c-0.564-1.622,1.207-3.027,3.888-5.155     c2.126-1.686,4.769-3.788,5.88-5.869c0.201-0.377,0.187-0.529,0.187-0.529c-0.25-0.406-2.362-0.839-3.906-1.156     c-6.172-1.265-16.505-3.382-22.333-16.335c-5.971-13.27-5.898-29.271,0.19-41.753c4.426-9.077,11.526-15.218,19.996-17.294     c0.301-0.129,10.881-4.203,24.08-4.203c13.145,0,23.955,3.991,32.126,11.865c11.457,11.04,14.812,26.812,9.206,43.275     c-6.866,20.17-25.191,35.244-45.597,37.511C438.64,345.41,432.947,345.856,429.358,345.856z M425.93,343.287     c0.435,0.125,1.39,0.286,3.429,0.286c3.455,0,9.233-0.455,17.662-1.392c19.545-2.171,37.103-16.627,43.69-35.976     c5.307-15.59,2.161-30.493-8.628-40.892c-7.732-7.45-18.008-11.227-30.542-11.227c-12.75,0-23.288,4.051-23.393,4.091     c-7.941,1.958-14.508,7.667-18.631,16.121c-5.797,11.892-5.86,27.149-0.158,39.817c5.349,11.887,14.965,13.857,20.709,15.035     c2.913,0.598,4.838,0.99,5.519,2.436c0.348,0.743,0.268,1.604-0.243,2.561c-1.334,2.501-4.185,4.765-6.476,6.583     C427.819,341.56,426.445,342.651,425.93,343.287z"/>
		</g>
		<g>
			<path style="fill:#241726;" d="M84.923,466.796c-0.002,0,0,0-0.002,0c-23.185,0-46.357-12.048-59.03-30.696     c-10.049-14.787-12.137-31.631-5.882-47.43c14.171-35.798,61.256-38.767,61.729-38.791c1.938-0.377,4.075-0.576,6.201-0.576     c25.224,0,48.309,28.004,48.434,58.753c0.076,18.135-10.827,26.067-17.339,30.807c-1.916,1.392-4.087,2.974-4.098,3.721     c-0.002,0.174,0.234,0.462,0.629,0.765c2.467,1.889,6.725,2.951,10.147,3.803c4.209,1.048,6.991,1.742,7.067,3.788     c0.076,2.115-1.845,4.258-27.404,12.623C98.822,465.707,91.938,466.796,84.923,466.796z M87.939,351.587     c-1.985,0-3.979,0.185-5.927,0.553c-0.609,0.045-46.25,2.944-59.88,37.368c-5.969,15.077-3.962,31.167,5.648,45.307     c12.26,18.042,34.689,29.697,57.14,29.697c6.777,0,13.42-1.048,19.746-3.121c16.067-5.258,24.731-8.729,25.766-10.324     c-0.656-0.549-3.306-1.209-5.273-1.697c-3.625-0.904-8.14-2.03-10.981-4.209c-1.024-0.783-1.537-1.66-1.524-2.605     c0.022-1.892,2.017-3.344,5.035-5.539c6.161-4.484,16.469-11.985,16.4-28.952C133.968,378.506,111.972,351.587,87.939,351.587z"/>
		</g>
		<g>
			<path style="fill:#241726;" d="M142.304,150.219h-0.002c-28.662-0.002-56.826-15.686-71.749-39.958     c-11.847-19.268-13.089-40.328-3.498-59.295c18.784-37.143,66.177-39.025,75.488-39.025c0.888,0,1.37,0.018,1.37,0.018     c1.122-0.116,2.414-0.179,3.687-0.179c12.684,0,25.222,6.061,35.307,17.064c13.739,14.99,20.845,36.469,19.012,57.457     c-1.863,21.305-15.528,29.456-23.694,34.325c-2.574,1.535-5.235,3.123-5.338,4.111c-0.038,0.361,0.373,0.823,0.725,1.149     c2.742,2.527,7.676,4.247,11.642,5.63c4.765,1.662,7.915,2.759,7.79,5.021c-0.129,2.333-2.681,4.68-33.542,11.744     C153.893,149.568,148.109,150.219,142.304,150.219z M142.543,14.225c-9.076,0-55.269,1.823-73.449,37.772     c-9.221,18.233-8.012,38.501,3.404,57.069c14.517,23.609,41.916,38.867,69.804,38.869h0.002c5.632,0,11.245-0.633,16.688-1.878     c20.462-4.684,31.153-7.941,31.776-9.683c-0.319-0.627-3.756-1.825-6.266-2.699c-4.165-1.452-9.349-3.259-12.438-6.11     c-1.086-1.002-1.559-2.003-1.45-3.063c0.223-2.126,2.697-3.603,6.442-5.836c7.789-4.646,20.828-12.423,22.588-32.565     c1.778-20.359-5.108-41.187-18.421-55.713c-10.611-11.577-24.024-17.421-37.243-16.15     C143.817,14.245,143.364,14.225,142.543,14.225z"/>
		</g>
		<g>
			<path style="fill:#241726;" d="M351.622,143.967c-1.425,0-2.066-0.614-2.353-1.129c-0.917-1.644,0.593-4.093,2.88-7.801     c2.01-3.257,4.51-7.31,4.992-10.663c0.08-0.551,0.042-0.964-0.1-1.129c-0.085-0.098-0.404-0.326-1.528-0.326     c-1.149,0-2.728,0.23-4.557,0.498c-2.746,0.401-6.163,0.899-9.973,0.899c-10.393,0-19.124-3.797-26.694-11.606     c-14.04-14.484-21.488-35.369-19.438-54.508c1.486-13.87,7.818-25.182,17.832-31.852c0.127-0.125,24.787-21.437,53.879-21.437     c8.079,0,15.84,1.637,23.069,4.863c20.098,8.974,31.887,27.928,32.342,52.003c0.558,29.552-16.232,57.859-41.778,70.44     C363.257,140.562,354.979,143.967,351.622,143.967z M351.312,141.671c0.06,0,0.165,0.011,0.31,0.011l0,0     c2.862,0,11.619-3.658,27.564-11.51c24.767-12.2,41.044-39.666,40.502-68.35c-0.437-23.152-11.733-41.361-30.991-49.958     c-6.933-3.096-14.381-4.667-22.137-4.667c-28.218,0-52.253,20.752-52.494,20.961c-9.556,6.378-15.532,17.1-16.946,30.286     c-1.979,18.481,5.229,38.666,18.809,52.677c7.116,7.341,15.311,10.91,25.052,10.91c3.645,0,6.971-0.484,9.643-0.875     c1.916-0.281,3.571-0.522,4.887-0.522c0.982,0,2.389,0.116,3.254,1.113c0.611,0.707,0.819,1.673,0.636,2.951     c-0.551,3.821-3.19,8.1-5.309,11.537c-1.2,1.943-2.824,4.577-2.82,5.436C351.285,141.671,351.297,141.671,351.312,141.671z"/>
		</g>
	</g>
</g>















</svg>
