<svg id="Capa_1" enable-background="new 0 0 512 512"  viewBox="0 0 512 512" fill="#910A67" xmlns="http://www.w3.org/2000/svg"><g><g><path d="m221 135.5h110c5.79 0 10.5-4.71 10.5-10.5v-81c0-5.79-4.71-10.5-10.5-10.5h-110c-5.79 0-10.5 4.71-10.5 10.5v81c0 5.79 4.71 10.5 10.5 10.5zm4.5-87h101v72h-101z"/><path d="m306 58.5h-60c-5.79 0-10.5 4.71-10.5 10.5v31c0 5.79 4.71 10.5 10.5 10.5h60c5.79 0 10.5-4.71 10.5-10.5v-31c0-5.79-4.71-10.5-10.5-10.5zm-4.5 37h-51v-22h51z"/><path d="m221 304.5h110c5.79 0 10.5-4.71 10.5-10.5v-135c0-5.79-4.71-10.5-10.5-10.5h-110c-5.79 0-10.5 4.71-10.5 10.5v135c0 5.79 4.71 10.5 10.5 10.5zm4.5-141h101v126h-101z"/><path d="m365 259.5h110c5.79 0 10.5-4.71 10.5-10.5v-67c0-4.143-3.357-7.5-7.5-7.5s-7.5 3.357-7.5 7.5v62.5h-101v-126h101v28.5c0 4.143 3.357 7.5 7.5 7.5s7.5-3.357 7.5-7.5v-33c0-5.79-4.71-10.5-10.5-10.5h-110c-5.79 0-10.5 4.71-10.5 10.5v135c0 5.79 4.71 10.5 10.5 10.5z"/><path d="m390 128.5c-5.79 0-10.5 4.71-10.5 10.5v85c0 5.79 4.71 10.5 10.5 10.5h60c5.79 0 10.5-4.71 10.5-10.5v-85c0-5.79-4.71-10.5-10.5-10.5zm48.296 15-16.584 22.865-18.824-22.865zm-43.796 13.41 18.112 22.002-18.112 24.973zm51 62.59h-43.796l43.796-60.385z"/><path d="m499.5 431.5h-22.937l17.852-74.537c.896-3.746.043-7.629-2.342-10.652-2.386-3.024-5.963-4.759-9.814-4.759h-1.541c8.884-12.224 12.195-27.667 8.841-42.758-.886-3.988-4.035-7.137-8.021-8.022-17.869-3.971-36.256 1.371-49.178 14.293-2.693 2.693-5.037 5.635-7.056 8.749-2.02-3.116-4.371-6.055-7.066-8.749-12.921-12.92-31.302-18.264-49.177-14.293-3.984.885-7.133 4.032-8.022 8.022-3.353 15.091-.042 30.534 8.842 42.758h-1.541c-3.852 0-7.429 1.734-9.814 4.759-2.385 3.023-3.238 6.906-2.342 10.652l17.852 74.537h-182.64c2.633-4.719 4.552-9.92 5.574-15.481l.323-1.758c.673-3.661-.307-7.4-2.689-10.261-2.382-2.859-5.883-4.5-9.605-4.5h-8.522l20.342-84.93c.897-3.746.043-7.629-2.342-10.653s-5.962-4.759-9.814-4.759h-23.685c2.11-5.027 4.09-10.178 5.897-15.459 11.511-33.646 15.089-67.485 10.074-95.283-.678-3.758-3.339-6.858-6.943-8.092-3.604-1.233-7.607-.412-10.445 2.144-7.05 6.348-13.749 13.833-19.977 22.243-2.262-29.393-9.292-56.343-20.379-77.405-1.826-3.471-5.392-5.627-9.305-5.627 0 0 0 0-.001 0-3.913 0-7.478 2.155-9.305 5.626-11.087 21.063-18.117 48.014-20.379 77.406-6.228-8.411-12.927-15.896-19.977-22.244-2.838-2.554-6.839-3.377-10.444-2.143-3.604 1.233-6.265 4.334-6.943 8.092-5.015 27.798-1.438 61.637 10.074 95.283 1.807 5.281 3.787 10.432 5.897 15.459h-23.686c-3.851 0-7.428 1.734-9.813 4.758-2.386 3.024-3.24 6.907-2.343 10.653v.001l20.34 84.93h-8.521c-3.722 0-7.222 1.64-9.604 4.499-2.382 2.86-3.363 6.6-2.69 10.261l.323 1.759c1.022 5.562 2.942 10.762 5.575 15.481h-15.903c-6.893 0-12.5 5.607-12.5 12.5v22c0 6.893 5.607 12.5 12.5 12.5h362.5c4.143 0 7.5-3.357 7.5-7.5s-3.357-7.5-7.5-7.5h-360v-17h482v17h-87c-4.143 0-7.5 3.357-7.5 7.5s3.357 7.5 7.5 7.5h89.5c6.893 0 12.5-5.607 12.5-12.5v-22c0-6.893-5.607-12.5-12.5-12.5zm-336.106-231.852c2.438 23.483-1.34 51.804-10.711 79.195-2.387 6.978-5.108 13.771-8.096 20.314h-29.255c1.899-10.052 4.568-20.26 8.019-30.35 9.372-27.392 23.731-52.09 40.043-69.159zm-53.495-57.076c9.909 22.715 15.5 52.371 15.5 83.002 0 .474-.012.946-.015 1.419-5.915 10.779-11.126 22.49-15.481 34.855-4.355-12.368-9.574-24.075-15.49-34.855-.003-.474-.015-.945-.015-1.419.001-30.631 5.592-60.287 15.501-83.002zm-53.495 57.076c16.311 17.069 30.671 41.769 40.042 69.16 2.236 6.536 4.142 13.122 5.729 19.683-.815 3.575-1.523 7.13-2.15 10.666h-24.814c-2.988-6.543-5.708-13.336-8.096-20.314-9.371-27.393-13.15-55.71-10.711-79.195zm116.49 231.852h-125.99c-4.422-4.611-7.643-10.426-9.083-17h75.179c4.142 0 7.5-3.357 7.5-7.5s-3.358-7.5-7.5-7.5h-54.255l-20.44-85.342h143.188l-20.44 85.342h-13.053c-4.142 0-7.5 3.357-7.5 7.5s3.358 7.5 7.5 7.5h33.976c-1.439 6.574-4.661 12.389-9.082 17zm270.073-115.828c8.591-8.593 20.552-12.516 32.472-10.78 1.735 11.92-2.188 23.881-10.779 32.472-1.552 1.552-3.218 2.947-4.97 4.188h-27.889c.262-9.634 4.161-18.876 11.166-25.88zm-67.809-10.78c11.918-1.734 23.881 2.188 32.473 10.78 4.948 4.948 8.338 11.016 10 17.547-.491 2.74-.759 5.525-.814 8.333h-25.917c-1.75-1.24-3.411-2.638-4.962-4.188-8.592-8.593-12.516-20.555-10.78-32.472zm14.301 126.608-17.95-74.948h107.58l-17.95 74.948z"/><path d="m306 173.5h-60c-5.79 0-10.5 4.71-10.5 10.5v85c0 5.79 4.71 10.5 10.5 10.5h60c5.79 0 10.5-4.71 10.5-10.5v-85c0-5.79-4.71-10.5-10.5-10.5zm-4.5 91h-51v-10.5h51zm0-25.5h-51v-50.5h51z"/></g></g></svg>