<?xml version="1.0"?>
<svg xmlns="http://www.w3.org/2000/svg" fill="#910A67" id="Icons" viewBox="0 0 60 60"><path d="M7,41h3.35a5.954,5.954,0,0,0,2.024,6.769A9.01,9.01,0,0,0,7,56v2a2,2,0,0,0,2,2H51a2,2,0,0,0,2-2V56a8.956,8.956,0,0,0-5.372-8.232A5.955,5.955,0,0,0,49.65,41H53a4,4,0,0,0,4-4V6a4,4,0,0,0-4-4H49V1a1,1,0,0,0-2,0V2H40V1a1,1,0,0,0-2,0V2H31V1a1,1,0,0,0-2,0V2H22V1a1,1,0,0,0-2,0V2H13V1a1,1,0,0,0-2,0V2H7A4,4,0,0,0,3,6V37A4,4,0,0,0,7,41Zm5,2a4,4,0,1,1,4,4A4,4,0,0,1,12,43Zm28.374,4.769a9.024,9.024,0,0,0-1.926,1.156,9.044,9.044,0,0,0-4.822-5.156A6.013,6.013,0,0,0,35.65,41h2.7a5.954,5.954,0,0,0,2.024,6.769ZM23,58V52a7,7,0,0,1,14,0l0,6H23Zm7-15a4,4,0,1,1,4-4A4,4,0,0,1,30,43Zm-3.626.769a9.035,9.035,0,0,0-4.82,5.153,9.04,9.04,0,0,0-1.926-1.154A5.955,5.955,0,0,0,21.65,41h2.7A6.013,6.013,0,0,0,26.374,43.769ZM9,58V56a7,7,0,0,1,11.952-4.954c.032.032.06.067.091.1-.026.281-.043.566-.043.854v6Zm39.95-6.956A7,7,0,0,1,51,56v2H39V52c0-.284-.017-.565-.043-.842a6.993,6.993,0,0,1,9.993-.114ZM44,47a4,4,0,1,1,4-4A4,4,0,0,1,44,47Zm9-8H48.46a5.973,5.973,0,0,0-8.92,0H36a6,6,0,0,0-12,0H20.46a5.973,5.973,0,0,0-8.92,0H7a2,2,0,0,1-2-2V10H55V37A2,2,0,0,1,53,39ZM7,4h4V5a1,1,0,0,0,2,0V4h7V5a1,1,0,0,0,2,0V4h7V5a1,1,0,0,0,2,0V4h7V5a1,1,0,0,0,2,0V4h7V5a1,1,0,0,0,2,0V4h4a2,2,0,0,1,2,2V8H5V6A2,2,0,0,1,7,4Z"/><path d="M37.238,17.878,33.9,17l-2.135-3.083a2.148,2.148,0,0,0-3.521,0L26.1,17l-3.342.879a2.345,2.345,0,0,0-1.652,1.56,2.3,2.3,0,0,0,.433,2.19l2.126,2.54L23.5,27.811a2.085,2.085,0,0,0,.847,1.773,2.136,2.136,0,0,0,1.995.293L30,28.567l3.661,1.31a2.139,2.139,0,0,0,1.995-.293A2.081,2.081,0,0,0,36.5,27.81l-.172-3.642,2.125-2.54a2.3,2.3,0,0,0,.434-2.19A2.345,2.345,0,0,0,37.238,17.878Zm-.315,2.467-2.376,2.839a1,1,0,0,0-.233.689l.153,4.1a.145.145,0,0,1-.132.018l-4-1.431a.992.992,0,0,0-.674,0l-4,1.431c-.059.02-.105,0-.171-.09l.191-4.032a1.008,1.008,0,0,0-.232-.689l-2.377-2.84a.3.3,0,0,1-.061-.3.343.343,0,0,1,.255-.231l3.7-.974a1.006,1.006,0,0,0,.568-.4l2.345-3.388a.133.133,0,0,1,.232,0h0l2.346,3.387a1,1,0,0,0,.567.4l3.7.974a.343.343,0,0,1,.255.232A.3.3,0,0,1,36.923,20.345Z"/></svg>
