<?xml version="1.0" encoding="UTF-8"?>
<svg xmlns="http://www.w3.org/2000/svg" viewBox="0 0 64 64" fill="#910A67"><g id="Profit"><path d="M11,42A11,11,0,1,0,22,53,11.01245,11.01245,0,0,0,11,42Zm0,20a9,9,0,1,1,9-9A9.01047,9.01047,0,0,1,11,62Z"/><path d="M12.74463,49.44678a.82164.82164,0,0,1,.25488.53076A1.00026,1.00026,0,0,0,13.95068,51a1.03218,1.03218,0,0,0,1.04737-.95068,2.79677,2.79677,0,0,0-.79932-1.977A3.67763,3.67763,0,0,0,12,47.06232V47a1,1,0,0,0-2,0v.0849a3.44494,3.44494,0,0,0,0,6.83191v2.98987a1.57572,1.57572,0,0,1-.74463-.35346A.84147.84147,0,0,1,9,56.04688v.00048a1.00019,1.00019,0,0,0-1.998-.09668,2.79677,2.79677,0,0,0,.79932,1.977A3.67685,3.67685,0,0,0,10,58.938V59a1,1,0,0,0,2,0v-.0849a3.44494,3.44494,0,0,0,0-6.83191V49.0943A1.57287,1.57287,0,0,1,12.74463,49.44678ZM9.001,50.50049A1.4211,1.4211,0,0,1,10,49.14288v2.71576A1.42263,1.42263,0,0,1,9.001,50.50049Zm3.998,4.999A1.4211,1.4211,0,0,1,12,56.85712V54.14136A1.42263,1.42263,0,0,1,12.999,55.49951Z"/><path d="M63,57H58V15a.99974.99974,0,0,0-1-1H49a.99974.99974,0,0,0-1,1V57H44V21a.99974.99974,0,0,0-1-1H35a.99974.99974,0,0,0-1,1V57H30V27a1,1,0,0,0-1-1H21a1,1,0,0,0-1,1V43.21a1,1,0,0,0,2,0V28h6V57H24.06982a1,1,0,1,0,0,2H62v3H20.79a1,1,0,0,0,0,2H63a.99974.99974,0,0,0,1-1V58A.99974.99974,0,0,0,63,57ZM50,16h6V57H50ZM36,22h6V57H36Z"/><path d="M7,40.58008a1.00005,1.00005,0,0,0,1-1V33h6v6.58008a1,1,0,0,0,2,0V32a1,1,0,0,0-1-1H7a1,1,0,0,0-1,1v7.58008A1.00005,1.00005,0,0,0,7,40.58008Z"/><path d="M10.999,25l.04834-.001C28.96722,24.14539,46.51917,8.67279,52,3.40405V10a1,1,0,0,0,2,0V1L53.99768.9884A1.02413,1.02413,0,0,0,53,0H44a1,1,0,0,0,0,2h6.55377C45.165,7.1189,27.9201,22.1933,10.95264,23.001A1.00007,1.00007,0,0,0,10.999,25Z"/></g></svg>
